<svg width="392" height="395" viewBox="0 0 392 395" fill="none" xmlns="http://www.w3.org/2000/svg">
<path d="M370.069 3.9027C370.844 2.7598 370.546 1.20529 369.403 0.430598C368.26 -0.344094 366.705 -0.0456027 365.931 1.0973L370.069 3.9027ZM269.813 203.16L269.813 200.66L269.813 203.16ZM0.0270522 391.958C0.0270536 393.339 1.14634 394.458 2.52705 394.458L25.0271 394.458C26.4078 394.458 27.5271 393.339 27.5271 391.958C27.5271 390.577 26.4078 389.458 25.027 389.458L5.02705 389.458L5.02703 369.458C5.02703 368.077 3.90774 366.958 2.52703 366.958C1.14631 366.958 0.0270279 368.077 0.0270293 369.458L0.0270522 391.958ZM365.931 1.0973C365.006 2.46177 364.063 3.81913 363.103 5.16938L367.179 8.06627C368.159 6.68639 369.123 5.29854 370.069 3.9027L365.931 1.0973ZM357.145 13.1854C355.119 15.796 353.032 18.3788 350.89 20.9338L354.721 24.1466C356.902 21.5452 359.029 18.9131 361.095 16.2503L357.145 13.1854ZM344.332 28.4785C342.112 30.9472 339.842 33.3887 337.528 35.803L341.138 39.2627C343.486 36.8121 345.792 34.332 348.05 31.8224L344.332 28.4785ZM330.505 42.9188C328.131 45.2572 325.719 47.5689 323.275 49.8538L326.689 53.5068C329.164 51.1933 331.608 48.8514 334.014 46.4809L330.505 42.9188ZM315.879 56.6C313.385 58.8216 310.863 61.0168 308.32 63.1855L311.564 66.9903C314.134 64.7992 316.682 62.5803 319.205 60.3334L315.879 56.6ZM300.629 69.6105C298.036 71.7341 295.426 73.831 292.803 75.9014L295.901 79.8258C298.546 77.7379 301.18 75.6222 303.797 73.4787L300.629 69.6105ZM284.879 82.0516C282.209 84.0899 279.532 86.1011 276.854 88.0853L279.829 92.1032C282.527 90.1055 285.223 88.0797 287.913 86.0257L284.879 82.0516ZM268.731 94.0179C266.006 95.982 263.284 97.9182 260.571 99.8265L263.448 103.916C266.175 101.998 268.913 100.05 271.655 98.0742L268.731 94.0179ZM252.296 105.585C249.507 107.506 246.733 109.398 243.982 111.259L246.784 115.4C249.545 113.532 252.33 111.633 255.132 109.703L252.296 105.585ZM235.676 116.838C232.832 118.735 230.02 120.6 227.247 122.431L230.003 126.603C232.781 124.769 235.599 122.9 238.451 120.997L235.676 116.838ZM218.818 127.981C215.966 129.855 213.163 131.694 210.424 133.495L213.171 137.673C215.909 135.872 218.707 134.036 221.564 132.16L218.818 127.981ZM202.039 139.026C199.134 140.952 196.315 142.833 193.596 144.669L196.394 148.813C199.097 146.987 201.904 145.114 204.802 143.193L202.039 139.026ZM185.227 150.407C182.318 152.439 179.559 154.412 176.973 156.326L179.947 160.345C182.489 158.464 185.209 156.518 188.09 154.506L185.227 150.407ZM168.917 162.568C166.039 164.926 163.483 167.197 161.307 169.38L164.847 172.91C166.873 170.878 169.296 168.721 172.086 166.435L168.917 162.568ZM154.584 177.945C152.431 181.996 151.972 186.182 154.51 189.945L158.655 187.149C157.488 185.419 157.389 183.323 159 180.291L154.584 177.945ZM163.812 196.561C166.552 197.684 169.831 198.682 173.664 199.57L174.792 194.699C171.137 193.852 168.13 192.927 165.706 191.934L163.812 196.561ZM183.754 201.466C186.901 201.947 190.318 202.385 194.015 202.782L194.547 197.81C190.913 197.421 187.571 196.992 184.509 196.524L183.754 201.466ZM203.936 203.692C207.112 203.94 210.457 204.164 213.976 204.365L214.261 199.373C210.773 199.174 207.463 198.952 204.325 198.707L203.936 203.692ZM224.297 204.866C227.454 204.994 230.731 205.107 234.133 205.204L234.276 200.206C230.893 200.11 227.636 199.997 224.5 199.87L224.297 204.866ZM244.477 205.445C247.662 205.504 250.945 205.55 254.326 205.585L254.377 200.585C251.009 200.55 247.74 200.504 244.568 200.446L244.477 205.445ZM264.508 205.652C266.253 205.658 268.021 205.66 269.813 205.66L269.813 200.66C268.026 200.66 266.263 200.658 264.524 200.652L264.508 205.652ZM269.813 205.66C271.524 205.66 273.274 205.573 275.058 205.404L274.587 200.426C272.947 200.582 271.354 200.66 269.813 200.66L269.813 205.66ZM285.289 203.662C288.506 202.894 291.798 201.918 295.138 200.758L293.497 196.035C290.297 197.146 287.165 198.074 284.128 198.799L285.289 203.662ZM304.663 197.018C307.721 195.683 310.801 194.216 313.882 192.633L311.596 188.186C308.604 189.724 305.619 191.145 302.664 192.435L304.663 197.018ZM322.793 187.731C325.695 186.031 328.582 184.24 331.437 182.368L328.696 178.187C325.909 180.013 323.094 181.761 320.266 183.417L322.793 187.731ZM339.798 176.596C342.542 174.603 345.239 172.545 347.874 170.433L344.746 166.532C342.174 168.594 339.54 170.604 336.86 172.551L339.798 176.596ZM355.649 163.878C358.215 161.603 360.697 159.282 363.077 156.931L359.563 153.374C357.25 155.66 354.833 157.919 352.331 160.137L355.649 163.878ZM370.117 149.544C372.44 146.946 374.624 144.325 376.642 141.699L372.678 138.652C370.741 141.172 368.638 143.697 366.39 146.211L370.117 149.544ZM382.535 133.26C384.449 130.201 386.109 127.15 387.473 124.133L382.916 122.074C381.658 124.858 380.108 127.712 378.296 130.607L382.535 133.26ZM390.874 114.169C391.693 110.476 391.961 106.85 391.556 103.369L386.589 103.948C386.919 106.78 386.713 109.838 385.993 113.087L390.874 114.169ZM387.866 92.933C386.888 91.4097 385.722 89.9662 384.365 88.6091L380.829 92.1447C381.944 93.2592 382.882 94.425 383.659 95.6348L387.866 92.933ZM384.365 88.6091C382.974 87.2189 381.377 86.1161 379.594 85.2958L377.504 89.8382C378.762 90.4166 379.867 91.1822 380.829 92.1447L384.365 88.6091ZM368.746 83.5249C365.574 83.6932 362.132 84.3247 358.45 85.3655L359.81 90.1769C363.23 89.2104 366.296 88.6619 369.01 88.5179L368.746 83.5249ZM348.831 88.7617C345.918 89.9694 342.871 91.3755 339.698 92.9703L341.942 97.438C345.024 95.8895 347.96 94.5354 350.746 93.3805L348.831 88.7617ZM330.854 97.7104C328.066 99.2907 325.192 100.995 322.236 102.817L324.86 107.073C327.769 105.279 330.59 103.607 333.32 102.06L330.854 97.7104ZM313.787 108.202C311.08 109.979 308.313 111.844 305.486 113.794L308.325 117.909C311.123 115.979 313.859 114.136 316.531 112.381L313.787 108.202ZM297.4 119.486C294.772 121.372 292.097 123.325 289.377 125.342L292.355 129.358C295.055 127.355 297.709 125.418 300.315 123.548L297.4 119.486ZM281.389 131.351C278.803 133.323 276.18 135.348 273.521 137.426L276.599 141.366C279.244 139.3 281.852 137.286 284.422 135.326L281.389 131.351ZM265.754 143.557C263.191 145.602 260.596 147.692 257.97 149.825L261.124 153.706C263.738 151.582 266.321 149.502 268.872 147.466L265.754 143.557ZM250.315 156.097C247.798 158.177 245.254 160.294 242.685 162.447L245.897 166.279C248.457 164.133 250.991 162.024 253.5 159.952L250.315 156.097ZM235.062 168.88C232.581 170.987 230.079 173.125 227.556 175.295L230.816 179.086C233.332 176.923 235.826 174.791 238.299 172.691L235.062 168.88ZM219.989 181.837C217.534 183.97 215.061 186.132 212.57 188.319L215.869 192.076C218.354 189.894 220.821 187.738 223.269 185.61L219.989 181.837ZM205.089 194.919C202.646 197.084 200.186 199.274 197.711 201.487L201.043 205.215C203.513 203.006 205.968 200.821 208.405 198.661L205.089 194.919ZM190.298 208.14C187.868 210.33 185.423 212.541 182.964 214.773L186.325 218.476C188.78 216.247 191.22 214.04 193.646 211.854L190.298 208.14ZM175.606 221.477C173.19 223.686 170.76 225.915 168.317 228.162L171.703 231.842C174.141 229.598 176.567 227.373 178.98 225.167L175.606 221.477ZM161.001 234.914C158.598 237.139 156.183 239.381 153.757 241.64L157.164 245.3C159.587 243.044 161.998 240.805 164.398 238.583L161.001 234.914ZM146.474 248.439C144.084 250.677 141.683 252.93 139.273 255.198L142.699 258.839C145.106 256.574 147.504 254.324 149.891 252.09L146.474 248.439ZM132.016 262.042C129.638 264.29 127.251 266.552 124.855 268.827L128.298 272.452C130.691 270.18 133.076 267.921 135.451 265.675L132.016 262.042ZM117.642 275.692C115.268 277.956 112.886 280.232 110.497 282.521L113.955 286.132C116.342 283.846 118.722 281.572 121.093 279.31L117.642 275.692ZM103.328 289.4C100.956 291.68 98.5764 293.972 96.1902 296.274L99.662 299.872C102.046 297.572 104.423 295.282 106.793 293.004L103.328 289.4ZM89.0615 303.165C86.691 305.46 84.314 307.766 81.9307 310.081L85.4148 313.667C87.7961 311.354 90.1712 309.05 92.5396 306.757L89.0615 303.165ZM74.8386 316.982C72.4694 319.291 70.0945 321.609 67.714 323.936L71.2092 327.512C73.5879 325.186 75.961 322.87 78.3284 320.563L74.8386 316.982ZM60.6544 330.848C58.2961 333.16 55.9327 335.48 53.5645 337.808L57.0697 341.374C59.4363 339.047 61.7981 336.728 64.1548 334.418L60.6544 330.848ZM46.5057 344.757C44.1575 347.071 41.8049 349.393 39.4482 351.722L42.9626 355.278C45.3179 352.951 47.6689 350.631 50.0156 348.318L46.5057 344.757ZM32.3898 358.705C30.0504 361.022 27.7072 363.346 25.3606 365.676L28.8833 369.224C31.2286 366.895 33.5704 364.573 35.9084 362.257L32.3898 358.705ZM18.3103 372.683C15.9765 375.005 13.6396 377.332 11.2997 379.665L14.83 383.206C17.1687 380.874 19.5044 378.548 21.8369 376.227L18.3103 372.683ZM4.27676 386.674C3.10493 387.845 1.93243 389.017 0.759283 390.19L4.29482 393.726C5.4674 392.553 6.63933 391.382 7.81059 390.212L4.27676 386.674Z" fill="black"/>
</svg>
