<svg width="114" height="544" viewBox="0 0 114 544" fill="none" xmlns="http://www.w3.org/2000/svg">
<path d="M21.4935 2.68452C21.5954 1.30758 20.5618 0.108727 19.1848 0.00681891C17.8079 -0.0950893 16.6091 0.938533 16.5071 2.31548L21.4935 2.68452ZM17.2326 543.268C18.2089 544.244 19.7918 544.244 20.7681 543.268L36.678 527.358C37.6543 526.382 37.6543 524.799 36.678 523.822C35.7017 522.846 34.1188 522.846 33.1424 523.822L19.0003 537.964L4.85817 523.822C3.88186 522.846 2.29895 522.846 1.32264 523.822C0.346327 524.799 0.346329 526.382 1.32264 527.358L17.2326 543.268ZM16.5071 2.31548C16.3842 3.97609 16.2655 5.6434 16.1512 7.3167L21.1396 7.65753C21.2533 5.99368 21.3713 4.33578 21.4935 2.68452L16.5071 2.31548ZM15.5228 17.3573C15.3334 20.6906 15.1623 24.0417 15.0106 27.4051L20.0055 27.6302C20.1563 24.2867 20.3265 20.9551 20.5148 17.641L15.5228 17.3573ZM14.6179 37.4586C14.5075 40.8061 14.4175 44.1605 14.3492 47.5166L19.3481 47.6183C19.416 44.2838 19.5055 40.9504 19.6152 37.6233L14.6179 37.4586ZM14.2105 57.5778C14.1867 60.9373 14.1858 64.2933 14.2093 67.6405L19.2092 67.6055C19.1859 64.2825 19.1867 60.95 19.2103 57.6132L14.2105 57.5778ZM14.355 77.7064C14.4296 81.0787 14.5305 84.4366 14.6591 87.7746L19.6554 87.5821C19.5279 84.2724 19.4278 80.9418 19.3537 77.5958L14.355 77.7064ZM15.1357 97.841C15.3267 101.223 15.5483 104.579 15.802 107.902L20.7875 107.521C20.5364 104.233 20.317 100.91 20.1278 97.5592L15.1357 97.841ZM16.6792 117.951C17.0134 121.339 17.3841 124.684 17.7931 127.981L22.755 127.366C22.3515 124.112 21.9853 120.809 21.655 117.461L16.6792 117.951ZM19.176 137.979C19.6951 141.363 20.2593 144.685 20.8707 147.937L25.7846 147.013C25.1842 143.82 24.6294 140.553 24.1182 137.221L19.176 137.979ZM22.9403 157.876C23.7162 161.25 24.5511 164.532 25.4479 167.712L30.2601 166.355C29.3872 163.26 28.5723 160.057 27.8131 156.755L22.9403 157.876ZM28.4914 177.405C29.6535 180.733 30.8994 183.919 32.2337 186.947L36.809 184.93C35.5333 182.036 34.335 178.973 33.2118 175.757L28.4914 177.405ZM36.8445 196.131C38.6304 199.245 40.5482 202.127 42.6069 204.745L46.5376 201.655C44.6469 199.25 42.8625 196.574 41.1819 193.644L36.8445 196.131ZM49.8824 212.356C52.6618 214.701 55.6485 216.642 58.8526 218.123L60.9513 213.585C58.1863 212.307 55.574 210.616 53.1067 208.535L49.8824 212.356ZM69.1546 221.138C70.8934 221.378 72.6753 221.5 74.5003 221.5V216.5C72.8979 216.5 71.3446 216.393 69.8384 216.185L69.1546 221.138ZM74.5003 221.5C76.3045 221.5 78.0542 221.316 79.7465 220.956L78.7069 216.065C77.3626 216.351 75.9616 216.5 74.5003 216.5V221.5ZM89.2902 216.695C91.9781 214.781 94.4014 212.362 96.5756 209.552L92.621 206.493C90.6943 208.983 88.6143 211.038 86.3897 212.622L89.2902 216.695ZM101.852 201.099C103.274 198.301 104.554 195.284 105.695 192.093L100.987 190.409C99.9075 193.428 98.7093 196.247 97.3947 198.833L101.852 201.099ZM108.534 182.745C109.313 179.698 109.992 176.542 110.573 173.302L105.651 172.419C105.09 175.549 104.436 178.587 103.69 181.507L108.534 182.745ZM111.979 163.742C112.348 160.583 112.632 157.371 112.835 154.128L107.844 153.817C107.647 156.974 107.37 160.096 107.012 163.162L111.979 163.742ZM113.192 144.511C113.232 141.306 113.194 138.09 113.079 134.884L108.083 135.062C108.194 138.189 108.231 141.324 108.192 144.449L113.192 144.511ZM112.503 125.275C112.23 122.047 111.878 118.847 111.447 115.698L106.493 116.375C106.912 119.437 107.255 122.551 107.521 125.697L112.503 125.275ZM109.872 106.167C109.242 102.941 108.522 99.7946 107.714 96.754L102.882 98.0378C103.659 100.964 104.354 104.001 104.965 107.126L109.872 106.167ZM104.843 87.4587C103.706 84.2768 102.452 81.2615 101.079 78.4548L96.5879 80.6518C97.8688 83.2705 99.0524 86.1115 100.134 89.1406L104.843 87.4587ZM96.0368 69.8938C93.9584 66.9916 91.6657 64.4695 89.1489 62.442L86.0122 66.3358C88.1113 68.0267 90.1032 70.1959 91.9717 72.805L96.0368 69.8938ZM79.8231 57.6571C78.1047 57.2239 76.3287 57 74.5003 57V62C75.9166 62 77.2822 62.1729 78.6009 62.5054L79.8231 57.6571ZM74.5003 57C72.5341 57 70.6249 57.3496 68.7841 58.0304L70.5183 62.72C71.8164 62.24 73.139 62 74.5003 62V57ZM59.8608 64.4494C57.7371 66.8109 55.7499 69.6913 53.8824 73.0307L58.2463 75.4712C59.9806 72.3699 61.7613 69.8136 63.5786 67.7926L59.8608 64.4494ZM49.4819 82.2341C48.2762 85.1478 47.1162 88.2963 45.9996 91.6682L50.7462 93.24C51.8304 89.9658 52.9489 86.9323 54.102 84.1459L49.4819 82.2341ZM43.098 101.273C42.244 104.362 41.4167 107.599 40.6153 110.978L45.4804 112.132C46.269 108.807 47.0811 105.63 47.9172 102.606L43.098 101.273ZM38.448 120.76C37.791 123.93 37.1527 127.206 36.5327 130.584L41.4505 131.487C42.0642 128.143 42.6952 124.905 43.3439 121.775L38.448 120.76ZM34.8404 140.326C34.3154 143.519 33.8045 146.791 33.3074 150.14L38.2533 150.874C38.7467 147.549 39.2536 144.303 39.7741 141.138L34.8404 140.326ZM31.9085 160.037C31.4745 163.26 31.0518 166.547 30.6403 169.897L35.603 170.507C36.0123 167.175 36.4324 163.907 36.8637 160.705L31.9085 160.037ZM29.4845 179.724C29.1176 182.983 28.7603 186.296 28.4123 189.66L33.3858 190.175C33.7323 186.825 34.088 183.527 34.4531 180.284L29.4845 179.724ZM27.4345 199.509C27.1246 202.759 26.8228 206.055 26.5289 209.393L31.5096 209.832C31.8025 206.505 32.1032 203.221 32.4119 199.983L27.4345 199.509ZM25.6873 219.334C25.4232 222.577 25.1661 225.858 24.9158 229.176L29.9016 229.552C30.1512 226.244 30.4076 222.972 30.6708 219.739L25.6873 219.334ZM24.191 239.153C23.9641 242.397 23.7433 245.674 23.5285 248.983L28.518 249.307C28.7323 246.006 28.9525 242.738 29.1788 239.502L24.191 239.153ZM22.9055 258.94C22.7091 262.198 22.5181 265.486 22.3324 268.801L27.3246 269.081C27.5099 265.772 27.7004 262.492 27.8964 259.241L22.9055 258.94ZM21.7955 278.746C21.6256 282.013 21.4606 285.306 21.3004 288.623L26.2945 288.864C26.4545 285.553 26.6192 282.267 26.7888 279.006L21.7955 278.746ZM20.8375 298.566C20.6908 301.837 20.5485 305.131 20.4105 308.447L25.4062 308.655C25.544 305.344 25.686 302.056 25.8324 298.79L20.8375 298.566ZM20.012 318.395C19.8858 321.668 19.7636 324.961 19.6453 328.273L24.6421 328.452C24.7602 325.144 24.8823 321.856 25.0083 318.588L20.012 318.395ZM19.3033 338.231C19.1952 341.503 19.0908 344.794 18.99 348.102L23.9877 348.254C24.0884 344.95 24.1927 341.664 24.3005 338.396L19.3033 338.231ZM18.6981 358.073C18.6063 361.344 18.5178 364.631 18.4325 367.934L23.4308 368.063C23.516 364.764 23.6044 361.481 23.6962 358.214L18.6981 358.073ZM18.1863 377.889C18.1087 381.168 18.0341 384.462 17.9626 387.77L22.9614 387.878C23.0329 384.574 23.1074 381.283 23.1849 378.007L18.1863 377.889ZM17.7574 397.704C17.6926 400.993 17.6306 404.296 17.5714 407.611L22.5706 407.701C22.6297 404.388 22.6917 401.089 22.7564 397.802L17.7574 397.704ZM17.4031 417.525C17.3499 420.824 17.2994 424.135 17.2514 427.457L22.2508 427.53C22.2988 424.21 22.3493 420.902 22.4024 417.605L17.4031 417.525ZM17.1163 437.352C17.0738 440.66 17.0336 443.979 16.9959 447.307L21.9956 447.364C22.0333 444.038 22.0734 440.722 22.1159 437.416L17.1163 437.352ZM16.891 457.186C16.8582 460.489 16.8277 463.801 16.7994 467.121L21.7992 467.164C21.8275 463.845 21.858 460.536 21.8907 457.236L16.891 457.186ZM16.7215 477.026C16.6977 480.323 16.6759 483.628 16.6562 486.941L21.6561 486.971C21.6758 483.66 21.6976 480.357 21.7213 477.062L16.7215 477.026ZM16.603 496.87C16.5873 500.163 16.5735 503.463 16.5615 506.77L21.5615 506.788C21.5734 503.483 21.5872 500.185 21.6029 496.894L16.603 496.87ZM16.531 516.71C16.5227 520.002 16.5161 523.3 16.5112 526.605L21.5112 526.612C21.5161 523.309 21.5227 520.013 21.531 516.722L16.531 516.71ZM16.5015 536.527C16.5007 538.183 16.5003 539.841 16.5003 541.5L21.5003 541.5C21.5003 539.842 21.5007 538.185 21.5015 536.529L16.5015 536.527Z" fill="black"/>
</svg>
